<svg xmlns="http://www.w3.org/2000/svg" xmlns:xlink="http://www.w3.org/1999/xlink" width="500" zoomAndPan="magnify" viewBox="0 0 375 374.999991" height="500" preserveAspectRatio="xMidYMid meet" version="1.0"><defs><clipPath id="b601ab6e91"><path d="M 187.5 0 C 83.945312 0 0 83.945312 0 187.5 C 0 291.054688 83.945312 375 187.5 375 C 291.054688 375 375 291.054688 375 187.5 C 375 83.945312 291.054688 0 187.5 0 Z M 187.5 0 " clip-rule="nonzero"/></clipPath><clipPath id="12334df58f"><path d="M 3.441406 3 L 372 3 L 372 371.457031 L 3.441406 371.457031 Z M 3.441406 3 " clip-rule="nonzero"/></clipPath></defs><g clip-path="url(#b601ab6e91)"><rect x="-37.5" width="450" fill="#ffffff" y="-37.499999" height="449.999989" fill-opacity="1"/></g><g clip-path="url(#12334df58f)"><path fill="#000000" d="M 352.792969 154.183594 C 237.3125 48.941406 166.289062 69.878906 136.625 124.730469 C 94.960938 39.929688 206.414062 -57.988281 352.792969 154.183594 Z M 341.628906 228.40625 C 341.628906 228.40625 332.65625 146.269531 222.714844 82.707031 C 222.714844 82.707031 376.464844 125.855469 341.628906 228.40625 Z M 297.777344 293.003906 C 297.777344 293.003906 328.074219 192.929688 220.3125 82.707031 C 220.3125 82.707031 393.640625 201.4375 297.777344 293.003906 Z M 225.082031 332.328125 C 225.082031 332.328125 297.085938 235.765625 220.3125 85.152344 C 220.3125 85.152344 366.3125 265.34375 225.082031 332.328125 Z M 220.230469 90.425781 C 220.230469 90.425781 322.695312 310.386719 127.796875 348.253906 C 127.796875 348.253906 258.101562 256.371094 220.230469 90.425781 Z M 3.476562 187.460938 C 3.476562 289.078125 85.855469 371.457031 187.472656 371.457031 C 289.089844 371.457031 371.46875 289.078125 371.46875 187.460938 C 371.46875 85.84375 289.089844 3.464844 187.472656 3.464844 C 85.855469 3.464844 3.476562 85.84375 3.476562 187.460938 " fill-opacity="1" fill-rule="nonzero"/></g></svg>